<svg width="129" height="32" viewBox="0 0 129 32" fill="none" xmlns="http://www.w3.org/2000/svg">
<path d="M16.84 31.92C16.6 31.92 16.3867 31.8267 16.2 31.64C16.1467 31.56 16.0933 31.48 16.04 31.4C15.9867 31.32 15.9333 31.24 15.88 31.16C15.64 30.6 15.52 30.0133 15.52 29.4L15.4 28.44C15.32 28.0667 15.2533 27.6933 15.2 27.32C15.1467 26.9467 15.0533 26.5867 14.92 26.24L14.68 25.56C14.68 25.5067 14.6667 25.4533 14.64 25.4C14.64 25.3467 14.6267 25.2933 14.6 25.24L14 23.12C13.9733 23.0667 13.9467 23 13.92 22.92C13.92 22.84 13.8933 22.7733 13.84 22.72C13.76 22.56 13.6933 22.4 13.64 22.24C13.6133 22.0533 13.5733 21.8667 13.52 21.68C13.4933 21.5467 13.4667 21.4267 13.44 21.32C13.4133 21.1867 13.3733 21.0533 13.32 20.92C13.2667 20.76 13.2133 20.6667 13.16 20.64C13.1067 20.5867 12.9867 20.5867 12.8 20.64C12.6667 20.6667 12.52 20.6933 12.36 20.72C12.2267 20.72 12.0933 20.7467 11.96 20.8C11.8533 20.8267 11.72 20.8533 11.56 20.88C11.4267 20.88 11.2933 20.8933 11.16 20.92L10.6 21.04C10.4667 21.0667 10.32 21.1067 10.16 21.16C10.0267 21.1867 9.89333 21.2 9.76 21.2L9.04 21.32C8.82667 21.3733 8.6 21.4267 8.36 21.48C8.12 21.5333 7.89333 21.5867 7.68 21.64C7.04 21.8 6.4 21.92 5.76 22C5.54667 22.0533 5.42667 22.1467 5.4 22.28C5.37333 22.28 5.36 22.2933 5.36 22.32C5.2 22.7467 5.01333 23.1733 4.8 23.6C4.61333 24 4.41333 24.4133 4.2 24.84C4.14667 24.9467 4.09333 25.0533 4.04 25.16C4.01333 25.24 3.97333 25.3333 3.92 25.44C3.89333 25.4933 3.86667 25.56 3.84 25.64C3.81333 25.6933 3.78667 25.7467 3.76 25.8C3.6 25.9867 3.52 26.2133 3.52 26.48C3.49333 26.64 3.44 26.8 3.36 26.96C3.28 27.0933 3.2 27.2267 3.12 27.36C3.09333 27.44 3.04 27.48 2.96 27.48C2.85333 27.5067 2.74667 27.5467 2.64 27.6C2.53333 27.6533 2.41333 27.7067 2.28 27.76C2.2 27.7867 2.12 27.7867 2.04 27.76C1.98667 27.7333 1.92 27.7067 1.84 27.68C1.78667 27.6267 1.73333 27.6 1.68 27.6C1.38667 27.5733 1.17333 27.4 1.04 27.08C0.826667 26.6533 0.68 26.2267 0.6 25.8C0.573333 25.6933 0.573333 25.6 0.6 25.52C0.653333 25.44 0.693333 25.36 0.72 25.28C0.88 25.1733 0.973333 25.0533 1 24.92V24.88C1 24.5333 1.06667 24.2133 1.2 23.92C1.36 23.6 1.49333 23.2933 1.6 23C1.65333 22.84 1.72 22.68 1.8 22.52C1.88 22.36 1.96 22.2 2.04 22.04C2.14667 21.8533 2.22667 21.68 2.28 21.52C2.36 21.3333 2.42667 21.1467 2.48 20.96C2.56 20.7467 2.56 20.5467 2.48 20.36C2.42667 20.2 2.4 20.0533 2.4 19.92C2.4 19.76 2.41333 19.6 2.44 19.44C2.44 19.1467 2.54667 18.8933 2.76 18.68C2.86667 18.5467 2.97333 18.44 3.08 18.36C3.21333 18.2533 3.33333 18.1467 3.44 18.04C3.68 17.8 3.86667 17.48 4 17.08C4.10667 16.7333 4.18667 16.3867 4.24 16.04C4.32 15.6667 4.4 15.3067 4.48 14.96C4.53333 14.6133 4.58667 14.28 4.64 13.96C4.72 13.6133 4.8 13.28 4.88 12.96C4.90667 12.8267 4.93333 12.7067 4.96 12.6C5.01333 12.4667 5.05333 12.3467 5.08 12.24C5.16 12.0267 5.24 11.8267 5.32 11.64C5.4 11.4267 5.45333 11.2133 5.48 11C5.53333 10.8933 5.53333 10.8 5.48 10.72C5.45333 10.5867 5.45333 10.4667 5.48 10.36C5.53333 10.2533 5.57333 10.1467 5.6 10.04C5.68 9.85333 5.73333 9.66667 5.76 9.48C5.81333 9.29333 5.88 9.10667 5.96 8.92C6.09333 8.57333 6.2 8.29333 6.28 8.08C6.38667 7.84 6.48 7.57333 6.56 7.28C6.61333 7.12 6.66667 6.97333 6.72 6.84C6.8 6.68 6.85333 6.52 6.88 6.36C6.96 6.12 7.02667 5.88 7.08 5.64C7.13333 5.37333 7.16 5.12 7.16 4.88C7.21333 4.66667 7.26667 4.52 7.32 4.44C7.45333 4.17333 7.61333 3.94667 7.8 3.76C8.01333 3.57333 8.21333 3.38667 8.4 3.2C8.53333 3.12 8.66667 3.06667 8.8 3.04C8.93333 2.98667 9.06667 3 9.2 3.08C9.30667 3.13333 9.37333 3.16 9.4 3.16C9.64 3.13333 9.84 3.18667 10 3.32C10.16 3.45333 10.2933 3.61333 10.4 3.8C10.4533 3.85333 10.4933 3.92 10.52 4C10.5467 4.08 10.5733 4.14667 10.6 4.2C10.7333 4.41333 10.8 4.62666 10.8 4.84C10.8 4.94667 10.8133 5.06667 10.84 5.2C10.8667 5.30667 10.8933 5.42667 10.92 5.56C11 5.72 11.12 5.8 11.28 5.8C11.3067 5.77333 11.3333 5.77333 11.36 5.8C11.3867 5.82666 11.4 5.85333 11.4 5.88C11.5333 6.04 11.5733 6.21333 11.52 6.4C11.4667 6.61333 11.4533 6.82667 11.48 7.04C11.5333 7.22666 11.5867 7.42666 11.64 7.64C11.7467 7.90666 11.8533 8.17333 11.96 8.44C12.0667 8.70667 12.1733 8.97333 12.28 9.24C12.4133 9.53333 12.5467 9.82667 12.68 10.12C12.8133 10.4133 12.9333 10.7067 13.04 11C13.1733 11.3733 13.3067 11.7467 13.44 12.12C13.6 12.4933 13.7733 12.8667 13.96 13.24L14.08 13.68C14.1067 13.7867 14.1333 13.8933 14.16 14C14.2133 14.1067 14.2533 14.2133 14.28 14.32C14.3333 14.4 14.3733 14.48 14.4 14.56C14.4533 14.64 14.5067 14.7067 14.56 14.76C14.6933 14.9467 14.7733 15.1467 14.8 15.36C14.88 15.6267 15 15.8667 15.16 16.08C15.2133 16.16 15.2933 16.2 15.4 16.2C15.8 16.1467 16.2 16.1067 16.6 16.08C17 16.0267 17.4 15.9467 17.8 15.84C18.0933 15.76 18.3733 15.72 18.64 15.72C19.1467 15.72 19.6133 15.8933 20.04 16.24C20.5467 16.64 20.8133 17.1467 20.84 17.76C20.84 17.8933 20.8533 18 20.88 18.08C20.88 18.2667 20.8267 18.4133 20.72 18.52C20.6933 18.6 20.64 18.68 20.56 18.76C20.5067 18.84 20.4533 18.92 20.4 19C20.3467 19.1067 20.2933 19.1867 20.24 19.24L20 19.44C19.9733 19.4933 19.9333 19.56 19.88 19.64C19.8267 19.6933 19.76 19.7333 19.68 19.76C19.5733 19.7867 19.4667 19.8267 19.36 19.88C19.2533 19.9067 19.1333 19.92 19 19.92C18.52 19.9733 18.0933 19.96 17.72 19.88H17.08C17.0267 19.88 16.9467 19.9067 16.84 19.96C16.7333 20.0133 16.68 20.08 16.68 20.16V20.32C16.76 20.56 16.8133 20.8133 16.84 21.08C16.8933 21.32 16.9733 21.5467 17.08 21.76C17.08 21.8667 17.1067 21.9733 17.16 22.08C17.2933 22.32 17.4 22.5733 17.48 22.84C17.56 23.08 17.6267 23.3333 17.68 23.6C17.68 23.6533 17.7067 23.76 17.76 23.92C17.84 24.1067 17.9067 24.3067 17.96 24.52C18.0133 24.7067 18.0533 24.9067 18.08 25.12C18.08 25.28 18.12 25.4267 18.2 25.56C18.3067 25.8 18.3867 26.04 18.44 26.28C18.4933 26.52 18.5333 26.7733 18.56 27.04C18.5867 27.0667 18.6 27.12 18.6 27.2C18.6 27.2533 18.6133 27.3067 18.64 27.36C18.7733 27.6533 18.8667 27.9733 18.92 28.32C18.9733 28.64 19.04 28.96 19.12 29.28C19.1733 29.44 19.2 29.6 19.2 29.76C19.2267 29.9467 19.24 30.1333 19.24 30.32C19.24 30.4533 19.2 30.6 19.12 30.76C19.04 30.84 19 30.88 19 30.88C18.84 30.9067 18.7467 31 18.72 31.16L18.6 31.4C18.5467 31.5067 18.4667 31.5733 18.36 31.6C18.2533 31.6 18.16 31.64 18.08 31.72C17.9733 31.8267 17.8267 31.88 17.64 31.88C17.5333 31.88 17.4 31.88 17.24 31.88C17.1067 31.88 16.9733 31.8933 16.84 31.92ZM7.2 17.4C7.36 17.3733 7.52 17.3467 7.68 17.32C7.86667 17.2933 8.06667 17.2667 8.28 17.24C8.41333 17.2133 8.58667 17.1867 8.8 17.16C9.01333 17.1333 9.21333 17.1067 9.4 17.08C9.58667 17.0267 9.77333 17 9.96 17C10.1467 16.9733 10.3333 16.9467 10.52 16.92C10.68 16.8667 10.84 16.84 11 16.84C11.16 16.8133 11.32 16.7867 11.48 16.76C11.72 16.7067 11.8133 16.5733 11.76 16.36C11.7333 16.1467 11.68 15.9333 11.6 15.72C11.5467 15.48 11.4267 15.28 11.24 15.12C11.1867 15.0667 11.16 14.9867 11.16 14.88V14.76C11.1067 14.5467 11.04 14.3467 10.96 14.16C10.9067 13.9467 10.84 13.7467 10.76 13.56C10.7067 13.3467 10.64 13.16 10.56 13C10.5067 12.8133 10.44 12.6267 10.36 12.44L9.88 11C9.8 10.8133 9.72 10.6267 9.64 10.44C9.58667 10.2533 9.53333 10.0667 9.48 9.88L9.36 9.72H9.24L9.16 9.84C9.02667 10.24 8.86667 10.64 8.68 11.04C8.52 11.44 8.37333 11.8667 8.24 12.32C8.24 12.3733 8.22667 12.44 8.2 12.52C8.17333 12.6 8.14667 12.68 8.12 12.76C8.01333 13.0267 7.90667 13.32 7.8 13.64C7.72 13.96 7.65333 14.28 7.6 14.6C7.57333 14.7867 7.54667 14.9733 7.52 15.16C7.49333 15.32 7.45333 15.4933 7.4 15.68L7.04 17.24C7.01333 17.2667 7.02667 17.3067 7.08 17.36C7.13333 17.3867 7.17333 17.4 7.2 17.4ZM29.5978 30.96L28.9178 30.84C28.5711 30.7867 28.2111 30.7333 27.8378 30.68C27.4911 30.6267 27.1311 30.5867 26.7578 30.56C26.3845 30.56 26.0111 30.4533 25.6378 30.24C25.2911 30.0533 25.0511 29.76 24.9178 29.36C24.8911 29.2267 24.8511 29.0933 24.7978 28.96C24.7711 28.8267 24.7445 28.6933 24.7178 28.56C24.7178 28.24 24.7845 28 24.9178 27.84C25.0511 27.7067 25.1578 27.5733 25.2378 27.44C25.3445 27.3067 25.4511 27.1867 25.5578 27.08C25.6111 27.0267 25.6645 26.9867 25.7178 26.96C25.7711 26.9333 25.8245 26.9067 25.8778 26.88C26.0111 26.8 26.1445 26.7467 26.2778 26.72C26.4111 26.6667 26.5445 26.6267 26.6778 26.6C26.7311 26.5733 26.7711 26.5733 26.7978 26.6C26.8511 26.6 26.8911 26.6 26.9178 26.6C27.0511 26.6267 27.1978 26.6533 27.3578 26.68C27.5178 26.68 27.6645 26.7067 27.7978 26.76L29.4778 27C29.8511 27.0533 30.1845 27 30.4778 26.84C30.5845 26.7867 30.6778 26.7333 30.7578 26.68C30.8645 26.6267 30.9578 26.5733 31.0378 26.52C31.6245 26.1733 32.1311 25.8133 32.5578 25.44C32.8778 25.1467 33.1845 24.8533 33.4778 24.56C33.7711 24.2667 34.0378 23.9467 34.2778 23.6C34.4645 23.36 34.5845 23.12 34.6378 22.88C34.6911 22.6133 34.7045 22.3467 34.6778 22.08L34.5578 21.76C34.5311 21.6267 34.4778 21.52 34.3978 21.44C34.3178 21.36 34.2378 21.2667 34.1578 21.16C33.9978 21.0267 33.8378 20.88 33.6778 20.72C33.5445 20.56 33.3978 20.4267 33.2378 20.32C32.8378 20 32.4378 19.6933 32.0378 19.4C31.6645 19.1067 31.2778 18.8133 30.8778 18.52C30.8511 18.4667 30.7711 18.4133 30.6378 18.36C30.3978 18.2 30.1578 18.0267 29.9178 17.84C29.7045 17.6267 29.4911 17.4267 29.2778 17.24C29.0111 16.9733 28.7178 16.72 28.3978 16.48C28.2378 16.4 28.0911 16.2667 27.9578 16.08C27.8511 15.9467 27.6911 15.8133 27.4778 15.68C27.2911 15.5733 27.1178 15.4533 26.9578 15.32C26.7978 15.16 26.6378 15.0133 26.4778 14.88L25.9578 14.4C25.8511 14.2667 25.7311 14.1467 25.5978 14.04C25.4911 13.9067 25.3711 13.7733 25.2378 13.64C25.1845 13.5067 25.1045 13.4 24.9978 13.32C24.9178 13.24 24.8378 13.1467 24.7578 13.04C24.7311 12.9867 24.6911 12.9333 24.6378 12.88C24.5845 12.8 24.5445 12.72 24.5178 12.64C24.3578 12.32 24.1845 12 23.9978 11.68C23.8378 11.36 23.6911 11.0267 23.5578 10.68C23.4778 10.4667 23.3978 10.2667 23.3178 10.08C23.2645 9.86667 23.2111 9.66667 23.1578 9.48C23.1311 9.26667 23.0778 9.08 22.9978 8.92C22.9445 8.73333 22.8911 8.54667 22.8378 8.36C22.7845 8.06667 22.7178 7.78667 22.6378 7.52C22.5845 7.22667 22.5311 6.94667 22.4778 6.68L22.3978 6.36C22.3711 6.06667 22.3711 5.78667 22.3978 5.52C22.4511 5.14667 22.5311 4.81333 22.6378 4.52C22.7445 4.2 22.9178 3.94667 23.1578 3.76C23.4245 3.54666 23.6911 3.33333 23.9578 3.12C24.2245 2.90667 24.5045 2.73333 24.7978 2.6C24.8511 2.6 24.8911 2.58667 24.9178 2.56C25.1845 2.34667 25.4778 2.2 25.7978 2.12C26.1178 2.01333 26.4378 1.92 26.7578 1.84C28.0378 1.46667 29.3578 1.18667 30.7178 0.999998H31.1178C31.3845 0.999998 31.6378 0.999998 31.8778 0.999998C32.1178 0.999998 32.3711 0.986665 32.6378 0.959999C32.9578 0.959999 33.2778 0.999999 33.5978 1.08C33.9178 1.13333 34.2245 1.22667 34.5178 1.36C34.7311 1.46667 34.9445 1.58667 35.1578 1.72C35.3711 1.82667 35.5711 1.94667 35.7578 2.08C35.9711 2.24 36.1045 2.41333 36.1578 2.6L36.2778 2.88C36.4111 3.12 36.4778 3.37333 36.4778 3.64C36.5045 3.88 36.4911 4.13333 36.4378 4.4C36.4378 4.48 36.4245 4.57333 36.3978 4.68C36.3978 4.76 36.3978 4.84 36.3978 4.92C36.3178 5.50666 36.0378 5.96 35.5578 6.28C35.2645 6.54667 34.8778 6.65333 34.3978 6.6C34.2911 6.54667 34.2378 6.57333 34.2378 6.68C34.2378 6.78667 34.1711 6.84 34.0378 6.84H33.7978C33.6378 6.84 33.4778 6.76 33.3178 6.6C33.1845 6.46667 33.1178 6.36 33.1178 6.28C33.1178 6.17333 33.1711 6.09333 33.2778 6.04C33.2245 5.90667 33.1711 5.78667 33.1178 5.68C33.0645 5.57333 33.0111 5.49333 32.9578 5.44C32.8778 5.30666 32.7578 5.21333 32.5978 5.16C32.4645 5.13333 32.3311 5.10667 32.1978 5.08C32.0645 5.05333 31.9311 5.02667 31.7978 5C31.6911 5 31.5711 5 31.4378 5C31.3045 4.97333 31.1711 4.94667 31.0378 4.92C30.9578 4.89333 30.8378 4.90667 30.6778 4.96C30.5978 4.98667 30.5178 5.01333 30.4378 5.04C30.3578 5.04 30.2645 5.02667 30.1578 5C30.0778 5 29.9845 5 29.8778 5C29.7978 5 29.7045 5.02667 29.5978 5.08L28.8378 5.2C28.4111 5.28 27.9978 5.44 27.5978 5.68C27.5178 5.70667 27.4378 5.73333 27.3578 5.76C27.2778 5.78667 27.1978 5.78667 27.1178 5.76C26.9578 5.73333 26.8245 5.77333 26.7178 5.88C26.6911 5.93333 26.6245 5.97333 26.5178 6C26.4378 6 26.3711 6.02667 26.3178 6.08C26.2111 6.18667 26.1578 6.29333 26.1578 6.4C26.1845 6.45333 26.1978 6.53333 26.1978 6.64L27.0378 9.08C27.1978 9.50667 27.3978 9.90667 27.6378 10.28C27.9045 10.6267 28.1845 10.9733 28.4778 11.32C28.9311 11.8533 29.3978 12.3067 29.8778 12.68L31.1578 13.76C31.4245 14 31.7045 14.2267 31.9978 14.44C32.2911 14.6533 32.5711 14.8667 32.8378 15.08C33.2378 15.3733 33.6378 15.68 34.0378 16C34.4378 16.2933 34.8378 16.6 35.2378 16.92C35.5578 17.1867 35.8645 17.4533 36.1578 17.72C36.4778 17.96 36.7711 18.2267 37.0378 18.52C37.2245 18.7333 37.4111 18.9467 37.5978 19.16C37.7845 19.3733 37.9445 19.6133 38.0778 19.88C38.2645 20.1733 38.4245 20.52 38.5578 20.92C38.7178 21.4267 38.7845 21.9067 38.7578 22.36C38.7311 22.4133 38.7178 22.4933 38.7178 22.6C38.7178 22.92 38.6778 23.2267 38.5978 23.52C38.5445 23.7867 38.4511 24.0667 38.3178 24.36C38.1845 24.6267 38.0378 24.9067 37.8778 25.2C37.7445 25.4667 37.5845 25.7333 37.3978 26C37.1311 26.3467 36.8511 26.68 36.5578 27C36.2911 27.2933 35.9845 27.5867 35.6378 27.88C35.4511 28.04 35.2645 28.2133 35.0778 28.4C34.8911 28.56 34.6911 28.7067 34.4778 28.84C34.3445 28.9467 34.2111 29.04 34.0778 29.12C33.9445 29.2267 33.8111 29.3333 33.6778 29.44C33.5711 29.4933 33.4645 29.56 33.3578 29.64C33.2511 29.72 33.1445 29.8 33.0378 29.88C32.9311 29.9867 32.7978 30.0667 32.6378 30.12C32.5045 30.2 32.3711 30.2667 32.2378 30.32L31.0778 30.8C30.8378 30.88 30.5978 30.9333 30.3578 30.96C30.1178 30.9867 29.8645 30.9867 29.5978 30.96ZM58.4806 31.92C58.2406 31.92 58.0273 31.8267 57.8406 31.64C57.7873 31.56 57.734 31.48 57.6806 31.4C57.6273 31.32 57.574 31.24 57.5206 31.16C57.2806 30.6 57.1606 30.0133 57.1606 29.4L57.0406 28.44C56.9606 28.0667 56.894 27.6933 56.8406 27.32C56.7873 26.9467 56.694 26.5867 56.5606 26.24L56.3206 25.56C56.3206 25.5067 56.3073 25.4533 56.2806 25.4C56.2806 25.3467 56.2673 25.2933 56.2406 25.24L55.6406 23.12C55.614 23.0667 55.5873 23 55.5606 22.92C55.5606 22.84 55.534 22.7733 55.4806 22.72C55.4006 22.56 55.334 22.4 55.2806 22.24C55.254 22.0533 55.214 21.8667 55.1606 21.68C55.134 21.5467 55.1073 21.4267 55.0806 21.32C55.054 21.1867 55.014 21.0533 54.9606 20.92C54.9073 20.76 54.854 20.6667 54.8006 20.64C54.7473 20.5867 54.6273 20.5867 54.4406 20.64C54.3073 20.6667 54.1606 20.6933 54.0006 20.72C53.8673 20.72 53.734 20.7467 53.6006 20.8C53.494 20.8267 53.3606 20.8533 53.2006 20.88C53.0673 20.88 52.934 20.8933 52.8006 20.92L52.2406 21.04C52.1073 21.0667 51.9606 21.1067 51.8006 21.16C51.6673 21.1867 51.534 21.2 51.4006 21.2L50.6806 21.32C50.4673 21.3733 50.2406 21.4267 50.0006 21.48C49.7606 21.5333 49.534 21.5867 49.3206 21.64C48.6806 21.8 48.0406 21.92 47.4006 22C47.1873 22.0533 47.0673 22.1467 47.0406 22.28C47.014 22.28 47.0006 22.2933 47.0006 22.32C46.8406 22.7467 46.654 23.1733 46.4406 23.6C46.254 24 46.054 24.4133 45.8406 24.84C45.7873 24.9467 45.734 25.0533 45.6806 25.16C45.654 25.24 45.614 25.3333 45.5606 25.44C45.534 25.4933 45.5073 25.56 45.4806 25.64C45.454 25.6933 45.4273 25.7467 45.4006 25.8C45.2406 25.9867 45.1606 26.2133 45.1606 26.48C45.134 26.64 45.0806 26.8 45.0006 26.96C44.9206 27.0933 44.8406 27.2267 44.7606 27.36C44.734 27.44 44.6806 27.48 44.6006 27.48C44.494 27.5067 44.3873 27.5467 44.2806 27.6C44.174 27.6533 44.054 27.7067 43.9206 27.76C43.8406 27.7867 43.7606 27.7867 43.6806 27.76C43.6273 27.7333 43.5606 27.7067 43.4806 27.68C43.4273 27.6267 43.374 27.6 43.3206 27.6C43.0273 27.5733 42.814 27.4 42.6806 27.08C42.4673 26.6533 42.3206 26.2267 42.2406 25.8C42.214 25.6933 42.214 25.6 42.2406 25.52C42.294 25.44 42.334 25.36 42.3606 25.28C42.5206 25.1733 42.614 25.0533 42.6406 24.92V24.88C42.6406 24.5333 42.7073 24.2133 42.8406 23.92C43.0006 23.6 43.134 23.2933 43.2406 23C43.294 22.84 43.3606 22.68 43.4406 22.52C43.5206 22.36 43.6006 22.2 43.6806 22.04C43.7873 21.8533 43.8673 21.68 43.9206 21.52C44.0006 21.3333 44.0673 21.1467 44.1206 20.96C44.2006 20.7467 44.2006 20.5467 44.1206 20.36C44.0673 20.2 44.0406 20.0533 44.0406 19.92C44.0406 19.76 44.054 19.6 44.0806 19.44C44.0806 19.1467 44.1873 18.8933 44.4006 18.68C44.5073 18.5467 44.614 18.44 44.7206 18.36C44.854 18.2533 44.974 18.1467 45.0806 18.04C45.3206 17.8 45.5073 17.48 45.6406 17.08C45.7473 16.7333 45.8273 16.3867 45.8806 16.04C45.9606 15.6667 46.0406 15.3067 46.1206 14.96C46.174 14.6133 46.2273 14.28 46.2806 13.96C46.3606 13.6133 46.4406 13.28 46.5206 12.96C46.5473 12.8267 46.574 12.7067 46.6006 12.6C46.654 12.4667 46.694 12.3467 46.7206 12.24C46.8006 12.0267 46.8806 11.8267 46.9606 11.64C47.0406 11.4267 47.094 11.2133 47.1206 11C47.174 10.8933 47.174 10.8 47.1206 10.72C47.094 10.5867 47.094 10.4667 47.1206 10.36C47.174 10.2533 47.214 10.1467 47.2406 10.04C47.3206 9.85333 47.374 9.66667 47.4006 9.48C47.454 9.29333 47.5206 9.10667 47.6006 8.92C47.734 8.57333 47.8406 8.29333 47.9206 8.08C48.0273 7.84 48.1206 7.57333 48.2006 7.28C48.254 7.12 48.3073 6.97333 48.3606 6.84C48.4406 6.68 48.494 6.52 48.5206 6.36C48.6006 6.12 48.6673 5.88 48.7206 5.64C48.774 5.37333 48.8006 5.12 48.8006 4.88C48.854 4.66667 48.9073 4.52 48.9606 4.44C49.094 4.17333 49.254 3.94667 49.4406 3.76C49.654 3.57333 49.854 3.38667 50.0406 3.2C50.174 3.12 50.3073 3.06667 50.4406 3.04C50.574 2.98667 50.7073 3 50.8406 3.08C50.9473 3.13333 51.014 3.16 51.0406 3.16C51.2806 3.13333 51.4806 3.18667 51.6406 3.32C51.8006 3.45333 51.934 3.61333 52.0406 3.8C52.094 3.85333 52.134 3.92 52.1606 4C52.1873 4.08 52.214 4.14667 52.2406 4.2C52.374 4.41333 52.4406 4.62666 52.4406 4.84C52.4406 4.94667 52.454 5.06667 52.4806 5.2C52.5073 5.30667 52.534 5.42667 52.5606 5.56C52.6406 5.72 52.7606 5.8 52.9206 5.8C52.9473 5.77333 52.974 5.77333 53.0006 5.8C53.0273 5.82666 53.0406 5.85333 53.0406 5.88C53.174 6.04 53.214 6.21333 53.1606 6.4C53.1073 6.61333 53.094 6.82667 53.1206 7.04C53.174 7.22666 53.2273 7.42666 53.2806 7.64C53.3873 7.90666 53.494 8.17333 53.6006 8.44C53.7073 8.70667 53.814 8.97333 53.9206 9.24C54.054 9.53333 54.1873 9.82667 54.3206 10.12C54.454 10.4133 54.574 10.7067 54.6806 11C54.814 11.3733 54.9473 11.7467 55.0806 12.12C55.2406 12.4933 55.414 12.8667 55.6006 13.24L55.7206 13.68C55.7473 13.7867 55.774 13.8933 55.8006 14C55.854 14.1067 55.894 14.2133 55.9206 14.32C55.974 14.4 56.014 14.48 56.0406 14.56C56.094 14.64 56.1473 14.7067 56.2006 14.76C56.334 14.9467 56.414 15.1467 56.4406 15.36C56.5206 15.6267 56.6406 15.8667 56.8006 16.08C56.854 16.16 56.934 16.2 57.0406 16.2C57.4406 16.1467 57.8406 16.1067 58.2406 16.08C58.6406 16.0267 59.0406 15.9467 59.4406 15.84C59.734 15.76 60.014 15.72 60.2806 15.72C60.7873 15.72 61.254 15.8933 61.6806 16.24C62.1873 16.64 62.454 17.1467 62.4806 17.76C62.4806 17.8933 62.494 18 62.5206 18.08C62.5206 18.2667 62.4673 18.4133 62.3606 18.52C62.334 18.6 62.2806 18.68 62.2006 18.76C62.1473 18.84 62.094 18.92 62.0406 19C61.9873 19.1067 61.934 19.1867 61.8806 19.24L61.6406 19.44C61.614 19.4933 61.574 19.56 61.5206 19.64C61.4673 19.6933 61.4006 19.7333 61.3206 19.76C61.214 19.7867 61.1073 19.8267 61.0006 19.88C60.894 19.9067 60.774 19.92 60.6406 19.92C60.1606 19.9733 59.734 19.96 59.3606 19.88H58.7206C58.6673 19.88 58.5873 19.9067 58.4806 19.96C58.374 20.0133 58.3206 20.08 58.3206 20.16V20.32C58.4006 20.56 58.454 20.8133 58.4806 21.08C58.534 21.32 58.614 21.5467 58.7206 21.76C58.7206 21.8667 58.7473 21.9733 58.8006 22.08C58.934 22.32 59.0406 22.5733 59.1206 22.84C59.2006 23.08 59.2673 23.3333 59.3206 23.6C59.3206 23.6533 59.3473 23.76 59.4006 23.92C59.4806 24.1067 59.5473 24.3067 59.6006 24.52C59.654 24.7067 59.694 24.9067 59.7206 25.12C59.7206 25.28 59.7606 25.4267 59.8406 25.56C59.9473 25.8 60.0273 26.04 60.0806 26.28C60.134 26.52 60.174 26.7733 60.2006 27.04C60.2273 27.0667 60.2406 27.12 60.2406 27.2C60.2406 27.2533 60.254 27.3067 60.2806 27.36C60.414 27.6533 60.5073 27.9733 60.5606 28.32C60.614 28.64 60.6806 28.96 60.7606 29.28C60.814 29.44 60.8406 29.6 60.8406 29.76C60.8673 29.9467 60.8806 30.1333 60.8806 30.32C60.8806 30.4533 60.8406 30.6 60.7606 30.76C60.6806 30.84 60.6406 30.88 60.6406 30.88C60.4806 30.9067 60.3873 31 60.3606 31.16L60.2406 31.4C60.1873 31.5067 60.1073 31.5733 60.0006 31.6C59.894 31.6 59.8006 31.64 59.7206 31.72C59.614 31.8267 59.4673 31.88 59.2806 31.88C59.174 31.88 59.0406 31.88 58.8806 31.88C58.7473 31.88 58.614 31.8933 58.4806 31.92ZM48.8406 17.4C49.0006 17.3733 49.1606 17.3467 49.3206 17.32C49.5073 17.2933 49.7073 17.2667 49.9206 17.24C50.054 17.2133 50.2273 17.1867 50.4406 17.16C50.654 17.1333 50.854 17.1067 51.0406 17.08C51.2273 17.0267 51.414 17 51.6006 17C51.7873 16.9733 51.974 16.9467 52.1606 16.92C52.3206 16.8667 52.4806 16.84 52.6406 16.84C52.8006 16.8133 52.9606 16.7867 53.1206 16.76C53.3606 16.7067 53.454 16.5733 53.4006 16.36C53.374 16.1467 53.3206 15.9333 53.2406 15.72C53.1873 15.48 53.0673 15.28 52.8806 15.12C52.8273 15.0667 52.8006 14.9867 52.8006 14.88V14.76C52.7473 14.5467 52.6806 14.3467 52.6006 14.16C52.5473 13.9467 52.4806 13.7467 52.4006 13.56C52.3473 13.3467 52.2806 13.16 52.2006 13C52.1473 12.8133 52.0806 12.6267 52.0006 12.44L51.5206 11C51.4406 10.8133 51.3606 10.6267 51.2806 10.44C51.2273 10.2533 51.174 10.0667 51.1206 9.88L51.0006 9.72H50.8806L50.8006 9.84C50.6673 10.24 50.5073 10.64 50.3206 11.04C50.1606 11.44 50.014 11.8667 49.8806 12.32C49.8806 12.3733 49.8673 12.44 49.8406 12.52C49.814 12.6 49.7873 12.68 49.7606 12.76C49.654 13.0267 49.5473 13.32 49.4406 13.64C49.3606 13.96 49.294 14.28 49.2406 14.6C49.214 14.7867 49.1873 14.9733 49.1606 15.16C49.134 15.32 49.094 15.4933 49.0406 15.68L48.6806 17.24C48.654 17.2667 48.6673 17.3067 48.7206 17.36C48.774 17.3867 48.814 17.4 48.8406 17.4ZM72.9944 29.2C72.8877 29.2 72.7944 29.2 72.7144 29.2C72.6344 29.2 72.541 29.1867 72.4344 29.16C72.381 29.16 72.3144 29.1467 72.2344 29.12C72.181 29.12 72.1277 29.12 72.0744 29.12C71.6477 29.0933 71.2477 29.0133 70.8744 28.88C70.501 28.7467 70.1277 28.5867 69.7544 28.4C69.7277 28.4 69.701 28.4 69.6744 28.4C69.6744 28.3733 69.661 28.36 69.6344 28.36C69.3677 28.2267 69.1277 28.0667 68.9144 27.88C68.7277 27.6933 68.541 27.5067 68.3544 27.32C68.141 27.0533 67.9944 26.8 67.9144 26.56C67.8077 26.3467 67.6744 26.12 67.5144 25.88C67.2477 25.5867 67.0477 25.2133 66.9144 24.76C66.8344 24.5467 66.7544 24.3333 66.6744 24.12C66.5944 23.9067 66.5277 23.68 66.4744 23.44C66.4477 23.36 66.421 23.28 66.3944 23.2C66.3677 23.0933 66.3277 22.9867 66.2744 22.88C66.221 22.7467 66.1677 22.6 66.1144 22.44C66.0877 22.28 66.0477 22.12 65.9944 21.96C65.9677 21.8533 65.9277 21.68 65.8744 21.44C65.8477 21.1733 65.8344 21.0133 65.8344 20.96V19.24C65.861 19.08 65.8877 18.9333 65.9144 18.8C65.941 18.64 65.9677 18.48 65.9944 18.32L66.0344 18.28C66.0344 18.3067 66.0344 18.32 66.0344 18.32C66.061 18.32 66.0744 18.3333 66.0744 18.36C66.101 18.36 66.1144 18.3733 66.1144 18.4C66.141 18.4267 66.1544 18.4133 66.1544 18.36C66.1544 18.2 66.141 18.0667 66.1144 17.96C66.1144 17.9067 66.101 17.8533 66.0744 17.8C66.0744 17.7467 66.1277 17.7067 66.2344 17.68C66.261 17.68 66.2744 17.64 66.2744 17.56L66.6344 15.8C66.661 15.6667 66.6877 15.5467 66.7144 15.44C66.741 15.3067 66.7677 15.1867 66.7944 15.08L66.8744 14.64C66.8477 14.6933 66.861 14.6 66.9144 14.36C66.9944 14.12 67.0477 13.96 67.0744 13.88C67.1277 13.7467 67.1944 13.6133 67.2744 13.48C67.381 13.3467 67.4477 13.2533 67.4744 13.2C67.6877 12.96 67.8877 12.6267 68.0744 12.2L68.8344 11C68.941 10.8933 68.9944 10.76 68.9944 10.6C68.9677 10.4667 69.0077 10.32 69.1144 10.16C69.1944 10 69.2744 9.84 69.3544 9.68C69.461 9.52 69.5677 9.36 69.6744 9.2C69.8077 8.98667 69.9544 8.77333 70.1144 8.56C70.301 8.32 70.4744 8.10667 70.6344 7.92C70.6877 7.84 70.741 7.76 70.7944 7.68C70.8744 7.6 70.9677 7.54667 71.0744 7.52C71.1277 7.52 71.1677 7.50667 71.1944 7.48C71.221 7.45333 71.2477 7.42667 71.2744 7.4C71.8077 6.84 72.4077 6.32 73.0744 5.84C73.1277 5.78667 73.181 5.73333 73.2344 5.68C73.2877 5.62667 73.341 5.58667 73.3944 5.56C73.5277 5.48 73.6744 5.44 73.8344 5.44C73.9677 5.44 74.0744 5.42666 74.1544 5.4C74.2344 5.4 74.3544 5.37333 74.5144 5.32C74.701 5.26667 74.8477 5.29333 74.9544 5.4C75.1144 5.56 75.381 5.61333 75.7544 5.56C75.9944 5.53333 76.1944 5.66667 76.3544 5.96C76.4077 6.04 76.4477 6.12 76.4744 6.2C76.5277 6.28 76.5944 6.34667 76.6744 6.4C76.7544 6.56 76.861 6.70667 76.9944 6.84C77.1544 6.97333 77.2877 7.10667 77.3944 7.24L77.9144 7.96C77.9677 8.04 78.021 8.13333 78.0744 8.24C78.1544 8.32 78.221 8.4 78.2744 8.48C78.4077 8.61333 78.4877 8.74667 78.5144 8.88C78.5677 9.01333 78.6077 9.10667 78.6344 9.16C78.6877 9.18667 78.7277 9.30667 78.7544 9.52C78.781 9.62667 78.781 9.69333 78.7544 9.72C78.7544 9.72 78.8077 9.72 78.9144 9.72C79.021 9.72 79.0744 9.78667 79.0744 9.92C79.0744 10.2133 79.021 10.4667 78.9144 10.68C78.861 10.76 78.8077 10.8 78.7544 10.8C78.7277 10.8 78.6877 10.8267 78.6344 10.88C78.5544 11.0133 78.461 11.1467 78.3544 11.28C78.2744 11.4133 78.181 11.56 78.0744 11.72C77.9944 11.8533 77.8877 11.9733 77.7544 12.08C77.6477 12.1867 77.5277 12.2933 77.3944 12.4C77.181 12.6133 76.9277 12.6933 76.6344 12.64C76.3944 12.64 76.221 12.6267 76.1144 12.6C76.0344 12.5733 75.9544 12.5467 75.8744 12.52C75.821 12.4667 75.7544 12.4267 75.6744 12.4C75.621 12.4 75.5677 12.3733 75.5144 12.32C75.4877 12.2667 75.461 12.2267 75.4344 12.2C75.4077 12.1467 75.3677 12.1067 75.3144 12.08C75.181 12 75.0744 11.9067 74.9944 11.8C74.9144 11.6667 74.8477 11.5467 74.7944 11.44C74.7677 11.36 74.7544 11.28 74.7544 11.2C74.7544 11.12 74.7544 11.0533 74.7544 11C74.7277 10.84 74.701 10.68 74.6744 10.52C74.6744 10.36 74.6477 10.2 74.5944 10.04C74.5944 9.98667 74.5277 9.96 74.3944 9.96C74.2344 10.0667 74.0744 10.1733 73.9144 10.28C73.7544 10.3867 73.6077 10.52 73.4744 10.68L72.2344 12.16C72.1544 12.24 72.0744 12.3333 71.9944 12.44C71.941 12.52 71.8877 12.6 71.8344 12.68C71.7277 12.8133 71.621 12.96 71.5144 13.12C71.4344 13.2533 71.3277 13.3867 71.1944 13.52C71.141 13.5733 71.101 13.6267 71.0744 13.68C70.9944 13.8667 70.901 14.04 70.7944 14.2C70.7144 14.36 70.6344 14.5467 70.5544 14.76C70.421 15.0267 70.301 15.32 70.1944 15.64C70.1144 15.9333 70.0477 16.24 69.9944 16.56C69.9677 16.96 69.8877 17.36 69.7544 17.76C69.7277 17.8933 69.701 18.04 69.6744 18.2C69.6477 18.36 69.621 18.52 69.5944 18.68C69.5677 18.92 69.5277 19.16 69.4744 19.4C69.421 19.64 69.4077 19.8933 69.4344 20.16C69.4877 20.6933 69.5677 21.2 69.6744 21.68C69.7544 21.9467 69.821 22.2133 69.8744 22.48C69.9544 22.72 70.0344 22.9733 70.1144 23.24C70.141 23.32 70.1677 23.4 70.1944 23.48C70.221 23.56 70.2477 23.64 70.2744 23.72C70.4344 24.0933 70.7277 24.3867 71.1544 24.6C71.3144 24.68 71.4877 24.72 71.6744 24.72C71.8344 24.72 71.9944 24.7333 72.1544 24.76C72.3144 24.76 72.4744 24.7467 72.6344 24.72C73.381 24.64 74.0744 24.52 74.7144 24.36C75.0077 24.3067 75.2877 24.2267 75.5544 24.12C75.821 24.0133 76.0877 23.9067 76.3544 23.8C76.5677 23.72 76.7677 23.6 76.9544 23.44C77.1677 23.28 77.381 23.12 77.5944 22.96C77.8344 22.7733 78.061 22.5867 78.2744 22.4C78.4877 22.2133 78.701 22.0267 78.9144 21.84C79.1277 21.6533 79.3277 21.4533 79.5144 21.24C79.5944 21.16 79.7144 21.0667 79.8744 20.96C79.9544 20.9067 80.0344 20.8533 80.1144 20.8C80.1944 20.7467 80.261 20.6933 80.3144 20.64C80.4477 20.56 80.5677 20.48 80.6744 20.4C80.8077 20.32 80.9544 20.28 81.1144 20.28C81.1944 20.2267 81.2744 20.2 81.3544 20.2C81.461 20.1733 81.5544 20.1467 81.6344 20.12C81.8744 20.04 82.0877 20.04 82.2744 20.12C82.3544 20.1467 82.4344 20.1733 82.5144 20.2C82.5944 20.2267 82.6744 20.2667 82.7544 20.32C82.9677 20.4533 83.1677 20.6667 83.3544 20.96C83.4877 21.28 83.5544 21.56 83.5544 21.8V22.04C83.5544 22.3867 83.421 22.6933 83.1544 22.96C82.861 23.3333 82.5544 23.6267 82.2344 23.84C82.0477 23.9467 81.861 24.0933 81.6744 24.28C81.4077 24.4933 81.1277 24.72 80.8344 24.96C80.5677 25.2 80.2877 25.4267 79.9944 25.64L79.8344 25.8C79.7544 25.8533 79.6744 25.92 79.5944 26C79.5144 26.08 79.421 26.1467 79.3144 26.2C79.1277 26.3867 78.9144 26.56 78.6744 26.72C78.4344 26.8533 78.1944 26.9867 77.9544 27.12C77.7144 27.2267 77.4877 27.3867 77.2744 27.6C77.1944 27.68 77.1144 27.76 77.0344 27.84C76.9544 27.92 76.861 27.9867 76.7544 28.04C76.4077 28.2267 76.0077 28.4133 75.5544 28.6C75.5277 28.6267 75.4877 28.6533 75.4344 28.68C75.381 28.7067 75.3277 28.7333 75.2744 28.76C75.1144 28.84 74.941 28.9067 74.7544 28.96C74.5944 28.9867 74.4344 29.0133 74.2744 29.04C74.061 29.0667 73.8477 29.08 73.6344 29.08C73.421 29.1067 73.2077 29.1467 72.9944 29.2ZM93.8828 28.96C93.8295 28.9333 93.7495 28.92 93.6428 28.92C93.5895 28.92 93.5361 28.88 93.4828 28.8C93.4295 28.72 93.3761 28.6533 93.3228 28.6C93.2695 28.52 93.2161 28.4267 93.1628 28.32C93.0828 28.2133 93.0161 28.2133 92.9628 28.32H92.8828C92.8828 28.2933 92.8695 28.28 92.8428 28.28C92.8428 28.2533 92.8428 28.24 92.8428 28.24C92.7628 27.8667 92.6428 27.52 92.4828 27.2C92.4028 26.9867 92.3228 26.7733 92.2428 26.56C92.1895 26.32 92.1495 26.08 92.1228 25.84L91.8828 24.08L91.7628 22.64V22.56C91.7095 22.24 91.6828 21.92 91.6828 21.6C91.6828 21.2533 91.6828 20.9067 91.6828 20.56C91.6561 20.3733 91.6428 20.2 91.6428 20.04C91.6428 19.8533 91.6295 19.6667 91.6028 19.48C91.5761 19.2667 91.5495 19.0533 91.5228 18.84C91.5228 18.6267 91.5228 18.4267 91.5228 18.24L91.5628 15.08V10.8C91.5095 10.64 91.4295 10.56 91.3228 10.56C91.2695 10.56 91.2028 10.5733 91.1228 10.6C91.0695 10.6 91.0161 10.6 90.9628 10.6L89.1628 11.08C88.9228 11.16 88.6828 11.24 88.4428 11.32C88.2028 11.3733 87.9628 11.44 87.7228 11.52C87.5361 11.5467 87.3495 11.5733 87.1628 11.6C87.0028 11.6 86.8295 11.6 86.6428 11.6C86.5095 11.6 86.3628 11.5467 86.2028 11.44C86.0161 11.36 85.8561 11.2533 85.7228 11.12C85.5895 10.9867 85.4561 10.84 85.3228 10.68L85.2428 10.56C85.1895 10.3733 85.1361 10.2 85.0828 10.04C85.0561 9.85333 85.0561 9.66667 85.0828 9.48C85.1095 9.24 85.1628 9.01333 85.2428 8.8C85.3495 8.58667 85.4961 8.4 85.6828 8.24C85.7628 8.18667 85.8295 8.12 85.8828 8.04C85.9628 7.96 86.0428 7.88 86.1228 7.8C86.2295 7.74667 86.2961 7.72 86.3228 7.72C86.4828 7.72 86.6295 7.69333 86.7628 7.64C86.8961 7.56 87.0295 7.50667 87.1628 7.48C87.2961 7.45333 87.4295 7.42667 87.5628 7.4C87.6961 7.37333 87.8295 7.34667 87.9628 7.32C88.3361 7.21333 88.7095 7.12 89.0828 7.04C89.4561 6.93333 89.8295 6.85333 90.2028 6.8L92.3628 6.44C92.4161 6.41333 92.4561 6.4 92.4828 6.4C92.5361 6.4 92.5761 6.38667 92.6028 6.36C92.7628 6.30667 92.9228 6.26667 93.0828 6.24C93.2428 6.21333 93.4028 6.22667 93.5628 6.28C93.6161 6.30667 93.6561 6.32 93.6828 6.32C93.7361 6.29333 93.7761 6.28 93.8028 6.28C94.2561 6.22667 94.7095 6.17333 95.1628 6.12C95.6161 6.06667 96.0561 6 96.4828 5.92C96.8295 5.86666 97.1761 5.81333 97.5228 5.76C97.8695 5.70667 98.2161 5.66667 98.5628 5.64C98.8295 5.58667 99.0961 5.54667 99.3628 5.52C99.6295 5.49333 99.8961 5.46667 100.163 5.44C100.376 5.41333 100.589 5.38667 100.803 5.36C101.043 5.33333 101.269 5.30667 101.483 5.28C101.696 5.25333 101.896 5.25333 102.083 5.28C102.296 5.28 102.509 5.28 102.723 5.28C102.856 5.28 102.976 5.32 103.083 5.4C103.216 5.48 103.336 5.54667 103.443 5.6C103.549 5.68 103.696 5.81333 103.883 6C103.936 6.05333 103.989 6.17333 104.043 6.36C104.069 6.44 104.096 6.53333 104.123 6.64C104.149 6.72 104.176 6.81333 104.203 6.92C104.256 7.16 104.229 7.38667 104.123 7.6L103.883 8.16C103.856 8.24 103.816 8.32 103.763 8.4C103.736 8.45333 103.696 8.50667 103.643 8.56C103.589 8.61333 103.563 8.64 103.563 8.64C103.456 8.72 103.336 8.8 103.203 8.88C103.096 8.96 102.963 9.01333 102.803 9.04L101.083 9.16C100.923 9.16 100.763 9.17333 100.603 9.2C100.443 9.2 100.269 9.21333 100.083 9.24H99.8828C99.4561 9.26667 99.0428 9.30667 98.6428 9.36C98.2428 9.41333 97.8428 9.46667 97.4428 9.52L95.8428 9.76C95.7628 9.76 95.7095 9.77333 95.6828 9.8C95.5761 9.8 95.4961 9.88 95.4428 10.04V10.16C95.4428 10.4267 95.4428 10.6933 95.4428 10.96C95.4428 11.2 95.4561 11.4533 95.4828 11.72C95.5628 12.0933 95.5628 12.4667 95.4828 12.84C95.4561 12.92 95.4295 13 95.4028 13.08C95.4028 13.1333 95.4028 13.1867 95.4028 13.24C95.4295 13.56 95.4028 13.9067 95.3228 14.28C95.3228 14.36 95.3228 14.44 95.3228 14.52C95.3228 14.6 95.3361 14.68 95.3628 14.76C95.3895 14.8667 95.4028 14.9867 95.4028 15.12C95.4028 15.2533 95.4028 15.3867 95.4028 15.52V17.6C95.4028 17.7067 95.3895 17.84 95.3628 18C95.3628 18.1333 95.3628 18.2667 95.3628 18.4C95.3628 18.5067 95.3628 18.6267 95.3628 18.76C95.3895 18.8933 95.4028 19.0267 95.4028 19.16C95.4028 19.3467 95.4028 19.5333 95.4028 19.72C95.4295 19.9067 95.4295 20.1067 95.4028 20.32V21.56C95.4028 21.5867 95.3895 21.6133 95.3628 21.64C95.3628 21.6667 95.3761 21.7067 95.4028 21.76C95.4295 22 95.4428 22.2533 95.4428 22.52C95.4428 22.76 95.4695 23 95.5228 23.24C95.5228 23.32 95.5228 23.4 95.5228 23.48C95.5495 23.56 95.5495 23.64 95.5228 23.72C95.5228 23.96 95.5495 24.2133 95.6028 24.48C95.6561 24.72 95.6961 24.96 95.7228 25.2C95.7761 25.4933 95.8295 25.7867 95.8828 26.08C95.9628 26.3733 96.0295 26.6667 96.0828 26.96L96.2028 27.52C96.2028 27.6 96.1628 27.6667 96.0828 27.72C96.0828 27.72 96.0695 27.72 96.0428 27.72C96.0428 27.72 96.0295 27.7333 96.0028 27.76C95.8695 27.8133 95.8161 27.8933 95.8428 28V28.2C95.8428 28.2 95.8295 28.2133 95.8028 28.24C95.8028 28.2667 95.7895 28.28 95.7628 28.28C95.6295 28.28 95.5228 28.3333 95.4428 28.44C95.3628 28.5467 95.2695 28.64 95.1628 28.72C95.0828 28.7733 94.9761 28.8267 94.8428 28.88C94.4961 29.0133 94.1761 29.04 93.8828 28.96ZM125.629 28.44C125.123 28.4667 124.643 28.3467 124.189 28.08C124.083 28.0267 123.949 27.9733 123.789 27.92C123.603 27.84 123.416 27.7067 123.229 27.52C122.936 27.2267 122.643 26.9467 122.349 26.68C122.083 26.3867 121.829 26.08 121.589 25.76C121.483 25.6267 121.376 25.48 121.269 25.32C121.163 25.16 121.043 25.0133 120.909 24.88C120.749 24.6933 120.589 24.52 120.429 24.36C120.296 24.1733 120.149 24 119.989 23.84L118.429 22.04C118.296 21.88 118.163 21.72 118.029 21.56C117.923 21.4 117.803 21.2533 117.669 21.12L117.469 20.88C117.416 20.8267 117.336 20.8267 117.229 20.88C117.203 20.9067 117.176 20.9333 117.149 20.96C117.123 20.96 117.096 20.9867 117.069 21.04C116.989 21.1467 116.909 21.24 116.829 21.32C116.749 21.4 116.683 21.4933 116.629 21.6C116.576 21.6267 116.509 21.6667 116.429 21.72C116.349 21.7467 116.296 21.7867 116.269 21.84C116.243 21.8667 116.216 21.92 116.189 22C116.189 22.08 116.163 22.1467 116.109 22.2L115.309 23.12C115.229 23.2267 115.149 23.3333 115.069 23.44C114.989 23.52 114.923 23.6133 114.869 23.72C114.789 23.8267 114.696 23.9333 114.589 24.04C114.509 24.1467 114.429 24.2667 114.349 24.4C114.189 24.5867 114.043 24.7867 113.909 25C113.776 25.2133 113.643 25.4267 113.509 25.64C113.323 25.9067 113.149 26.24 112.989 26.64C112.803 26.96 112.576 27.1733 112.309 27.28L111.469 27.72C111.443 27.72 111.416 27.7333 111.389 27.76C111.363 27.76 111.323 27.76 111.269 27.76C110.816 27.7067 110.416 27.6133 110.069 27.48C109.936 27.4267 109.829 27.3467 109.749 27.24L109.269 26.32C109.189 26.1867 109.149 26.04 109.149 25.88C109.176 25.7733 109.189 25.6267 109.189 25.44C109.189 25.0667 109.336 24.7067 109.629 24.36C109.816 24.12 110.003 23.8933 110.189 23.68C110.376 23.44 110.563 23.2 110.749 22.96C110.936 22.7467 111.109 22.5333 111.269 22.32C111.456 22.1067 111.616 21.88 111.749 21.64C111.883 21.4 112.043 21.2 112.229 21.04C112.523 20.6933 112.816 20.3333 113.109 19.96C113.403 19.5867 113.683 19.2267 113.949 18.88C114.029 18.7467 114.109 18.6267 114.189 18.52C114.296 18.3867 114.403 18.2667 114.509 18.16C114.563 18.0533 114.616 17.9733 114.669 17.92C114.669 17.8667 114.669 17.8267 114.669 17.8C114.696 17.7467 114.683 17.7067 114.629 17.68C114.523 17.5467 114.429 17.4267 114.349 17.32C114.269 17.1867 114.163 17.0667 114.029 16.96C113.576 16.4 113.123 15.8533 112.669 15.32C112.216 14.76 111.763 14.2 111.309 13.64C111.123 13.4 110.923 13.16 110.709 12.92C110.496 12.68 110.283 12.4533 110.069 12.24C109.883 12.0533 109.696 11.8667 109.509 11.68C109.349 11.4933 109.189 11.3067 109.029 11.12C108.923 10.9867 108.803 10.8533 108.669 10.72C108.563 10.56 108.443 10.4267 108.309 10.32C108.149 10.1867 108.029 10.0267 107.949 9.84C107.869 9.65333 107.803 9.46667 107.749 9.28V9.08C107.696 8.84 107.696 8.61333 107.749 8.4C107.803 8.18667 107.883 7.97333 107.989 7.76C108.203 7.38667 108.509 7.12 108.909 6.96C109.043 6.90667 109.163 6.88 109.269 6.88C109.403 6.85333 109.523 6.82667 109.629 6.8C109.816 6.74667 109.963 6.76 110.069 6.84C110.283 6.97333 110.536 7.10667 110.829 7.24C110.829 7.26667 110.843 7.28 110.869 7.28C110.949 7.33333 111.016 7.41333 111.069 7.52C111.149 7.62667 111.243 7.70667 111.349 7.76C111.429 7.78667 111.496 7.84 111.549 7.92C111.629 8 111.696 8.08 111.749 8.16C111.856 8.32 111.963 8.48 112.069 8.64C112.203 8.77333 112.336 8.90667 112.469 9.04C112.763 9.36 113.056 9.69333 113.349 10.04C113.643 10.3867 113.923 10.7333 114.189 11.08C114.323 11.2667 114.469 11.44 114.629 11.6C114.789 11.76 114.936 11.92 115.069 12.08C115.149 12.1867 115.229 12.3067 115.309 12.44C115.416 12.5467 115.523 12.6667 115.629 12.8C115.763 12.9867 115.896 13.1733 116.029 13.36C116.189 13.5467 116.349 13.7333 116.509 13.92C116.616 14.0533 116.723 14.1867 116.829 14.32C116.936 14.4533 117.043 14.5867 117.149 14.72C117.176 14.7467 117.203 14.7733 117.229 14.8C117.256 14.8 117.283 14.8267 117.309 14.88C117.389 14.9067 117.469 14.9067 117.549 14.88L117.949 14.52C118.163 14.28 118.376 14.04 118.589 13.8C118.803 13.56 119.016 13.3333 119.229 13.12C119.469 12.8533 119.696 12.5867 119.909 12.32C120.149 12.0533 120.389 11.7867 120.629 11.52C120.949 11.1733 121.256 10.8267 121.549 10.48C121.869 10.1333 122.189 9.78667 122.509 9.44L123.709 7.88C123.763 7.77333 123.816 7.69333 123.869 7.64C124.029 7.45333 124.163 7.25333 124.269 7.04C124.403 6.82667 124.523 6.62667 124.629 6.44C124.709 6.25333 124.816 6.13333 124.949 6.08C125.243 5.86667 125.549 5.72 125.869 5.64C126.189 5.56 126.523 5.53333 126.869 5.56C127.109 5.61333 127.323 5.70666 127.509 5.84C127.563 5.86667 127.616 5.90667 127.669 5.96C127.749 6.01333 127.829 6.06667 127.909 6.12C128.069 6.22667 128.189 6.38667 128.269 6.6V6.64C128.429 6.88 128.509 7.12 128.509 7.36C128.509 7.6 128.483 7.85333 128.429 8.12C128.403 8.36 128.323 8.58667 128.189 8.8C128.083 8.98667 127.963 9.16 127.829 9.32L126.269 11C126.243 11.0267 126.216 11.0533 126.189 11.08C126.189 11.08 126.176 11.0933 126.149 11.12C125.883 11.3867 125.616 11.6667 125.349 11.96C125.109 12.2267 124.869 12.5067 124.629 12.8L124.349 13.12C124.163 13.28 123.989 13.4533 123.829 13.64C123.669 13.8267 123.496 14.0133 123.309 14.2C123.256 14.3067 123.229 14.36 123.229 14.36C123.069 14.5467 122.896 14.7067 122.709 14.84C122.549 14.9733 122.403 15.1467 122.269 15.36C122.136 15.5467 121.989 15.72 121.829 15.88C121.669 16.04 121.509 16.2 121.349 16.36C121.163 16.5733 120.976 16.7867 120.789 17C120.603 17.1867 120.416 17.3867 120.229 17.6C120.203 17.6267 120.176 17.6533 120.149 17.68C120.123 17.7067 120.096 17.7467 120.069 17.8V17.96C120.096 18.0133 120.136 18.0667 120.189 18.12L120.709 18.76C120.923 19 121.136 19.24 121.349 19.48C121.589 19.72 121.803 19.96 121.989 20.2L123.309 21.8C123.603 22.12 123.883 22.44 124.149 22.76C124.443 23.08 124.723 23.4133 124.989 23.76C125.123 23.8933 125.269 24.0267 125.429 24.16C125.589 24.2667 125.749 24.3867 125.909 24.52L126.229 24.76C126.363 24.8667 126.469 24.9867 126.549 25.12C126.656 25.2267 126.749 25.3467 126.829 25.48C126.909 25.5867 126.949 25.72 126.949 25.88C126.949 26.0933 126.949 26.3067 126.949 26.52C126.976 26.7333 126.989 26.9467 126.989 27.16C126.989 27.24 126.963 27.3333 126.909 27.44C126.829 27.52 126.763 27.6133 126.709 27.72C126.523 28.1467 126.163 28.3867 125.629 28.44Z" fill="black"/>
</svg>
