<svg width="728" height="753" viewBox="0 0 728 753" fill="none" xmlns="http://www.w3.org/2000/svg">
<path d="M373.082 254.827C373.082 257.649 377.045 268.166 373.577 268.679C370.11 269.192 357.725 268.936 353.762 268.936C349.798 268.936 353.762 254.827 353.762 254.827M373.082 254.827H353.762M373.082 254.827C373.082 254.827 374.073 129.387 373.082 127.591C372.092 125.796 370.11 124 363.174 124C356.239 124 354.752 126.052 353.762 127.591C352.771 129.13 353.762 254.827 353.762 254.827M363.851 600.541L363.895 600.541C366.43 600.52 477.297 599.613 504 606.041C531 612.541 559.68 646.541 577.68 674.041C595.68 701.541 622.68 744.541 650.18 744.541C677.68 744.541 709.342 706.541 718 664.041C726.657 621.541 703.5 484.152 678.5 423.041C653.652 362.303 653.501 362.042 641.227 340.932L641 340.541C633.924 328.371 616.064 293.737 581.5 277.541C555.003 265.125 522.5 255.282 502 256.041C481.5 256.8 476 264.041 457.5 267.041C439 270.041 372.851 269.541 363.851 269.541C354.851 269.541 288.851 270.041 270.351 267.041C251.851 264.041 246.351 256.8 225.851 256.041C205.351 255.282 172.848 265.125 146.351 277.541C111.787 293.737 93.9264 328.371 86.8507 340.541L86.6234 340.932C74.3498 362.042 74.1983 362.303 49.3507 423.041C24.3507 484.152 1.19332 621.541 9.85073 664.041C18.5081 706.541 50.1711 744.541 77.6711 744.541C105.171 744.541 132.171 701.541 150.171 674.041C168.171 646.541 196.851 612.541 223.851 606.041C250.529 599.619 361.05 600.518 363.799 600.541L363.851 600.541Z" stroke="#00E0FF" stroke-width="15"/>
<circle cx="114.5" cy="559.5" r="37" stroke="black" stroke-width="15"/>
<circle cx="611.5" cy="559.5" r="37" stroke="black" stroke-width="15"/>
<rect x="191.5" y="334.5" width="345" height="133" rx="15.5" stroke="black" stroke-width="15"/>
<path d="M243 124C262.288 80.0067 313.721 55 350 55" stroke="#00E0FF" stroke-width="15"/>
<path d="M243 124C262.288 80.0067 313.721 55 350 55" stroke="#00E0FF" stroke-width="15"/>
<path d="M204 101C230.318 41.7047 300.498 8 350 8" stroke="#00E0FF" stroke-width="15"/>
<path d="M204 101C230.318 41.7047 300.498 8 350 8" stroke="#00E0FF" stroke-width="15"/>
</svg>
